<svg viewBox="0 0 1001 110" fill="none" xmlns="http://www.w3.org/2000/svg">
<path d="M14.0781 91.7656C11.3594 89.7031 9.10938 87.125 7.32812 84.0312C5.64062 80.9375 4.28125 77.6562 3.25 74.1875C2.3125 70.7188 1.65625 67.1562 1.28125 63.5C1 59.75 0.90625 56.1875 1 52.8125C1.84375 50.2812 2.875 47.9844 4.09375 45.9219C5.3125 43.7656 6.67188 41.75 8.17188 39.875C9.67188 37.9062 11.2188 36.0781 12.8125 34.3906C14.5 32.6094 16.1406 30.8281 17.7344 29.0469C18.2969 29.0469 18.8125 29.1875 19.2812 29.4688C19.6562 28.4375 20.2188 27.5469 20.9688 26.7969C21.7188 26.0469 22.5156 25.3906 23.3594 24.8281C24.2031 24.1719 25.0469 23.5625 25.8906 23C26.7344 22.3438 27.4375 21.5938 28 20.75C30.3438 20.1875 32.4062 19.3906 34.1875 18.3594C36.0625 17.3281 37.8438 16.2031 39.5312 14.9844C41.2188 13.7656 42.9531 12.6406 44.7344 11.6094C46.5156 10.5781 48.5781 9.78125 50.9219 9.21875C51.7656 8.28125 52.7969 7.48438 54.0156 6.82812C55.3281 6.17188 56.5938 5.5625 57.8125 5C59.125 4.4375 60.3438 3.82812 61.4688 3.17188C62.6875 2.51563 63.6719 1.625 64.4219 0.5C64.9844 1.25 65.7812 1.53125 66.8125 1.34375C67.8438 1.0625 68.7812 0.78125 69.625 0.5C70.1875 0.40625 70.6562 0.5 71.0312 0.78125C71.4062 1.0625 71.7344 1.39063 72.0156 1.76562C72.3906 2.04688 72.6719 2.23438 72.8594 2.32812C73.1406 2.42187 73.4219 2.14062 73.7031 1.48438C74.4531 1.57812 74.6406 1.90625 74.2656 2.46875C73.9844 3.03125 73.7969 3.40625 73.7031 3.59375C74.6406 3.40625 75.3906 3.59375 75.9531 4.15625C76.6094 4.625 77.5938 4.95312 78.9062 5.14062C79.375 5.60938 79.5156 5.98438 79.3281 6.26562C79.1406 6.54688 79 7.01562 78.9062 7.67188C82.2812 8.70312 84.4375 10.3438 85.375 12.5938C86.3125 14.75 86.4062 17.0469 85.6562 19.4844C84.9062 21.8281 83.5 24.0312 81.4375 26.0938C79.4688 28.0625 77.2656 29.375 74.8281 30.0312C71.9219 30.7812 69.2031 31.5312 66.6719 32.2812C64.2344 33.0312 61.8438 33.875 59.5 34.8125C57.25 35.75 55.0938 36.875 53.0312 38.1875C51.0625 39.4062 49.3281 40.8594 47.8281 42.5469C45.2031 43.2969 42.8125 44.3281 40.6562 45.6406C38.5938 46.9531 36.625 48.4062 34.75 50C32.9688 51.5938 31.2344 53.2812 29.5469 55.0625C27.8594 56.75 26.1719 58.4375 24.4844 60.125C24.4844 61.7188 24.2031 62.9375 23.6406 63.7812C23.0781 64.625 22.4688 65.4688 21.8125 66.3125C22 68.0938 22.375 69.6406 22.9375 70.9531C23.5938 72.1719 24.25 73.4375 24.9062 74.75C32.4062 77 40.3281 78.4062 48.6719 78.9688C57.1094 79.4375 65.4531 79.7188 73.7031 79.8125C74.5469 80.9375 75.4844 82.0156 76.5156 83.0469C77.6406 83.9844 78.625 84.9688 79.4688 86C80.4062 87.0312 81.1094 88.25 81.5781 89.6562C82.1406 90.9688 82.2812 92.5625 82 94.4375C80.4062 96.0312 78.6719 97.5781 76.7969 99.0781C74.9219 100.484 73.0469 101.891 71.1719 103.297C70.3281 103.391 69.2969 103.391 68.0781 103.297C66.9531 103.203 65.7344 103.156 64.4219 103.156C63.2031 103.156 61.9375 103.25 60.625 103.438C59.4062 103.531 58.2344 103.812 57.1094 104.281C51.2031 104.094 45.1562 103.391 38.9688 102.172C32.7812 100.859 27.0625 99.3125 21.8125 97.5312C20.7812 96.3125 19.7031 95.1875 18.5781 94.1562C17.4531 93.0312 15.9531 92.2344 14.0781 91.7656ZM111.672 89.375C110.641 93.125 109.703 95.9844 108.859 97.9531C108.109 99.8281 106.938 101.797 105.344 103.859C104.125 103.672 103.281 103.812 102.812 104.281C102.344 104.75 101.828 105.172 101.266 105.547C100.422 105.734 99.8125 105.734 99.4375 105.547C99.0625 105.359 98.7344 105.125 98.4531 104.844C98.1719 104.656 97.7969 104.422 97.3281 104.141C96.9531 103.953 96.3438 103.859 95.5 103.859C95.3125 103.109 95.0781 102.406 94.7969 101.75C94.6094 101.094 94 100.859 92.9688 101.047C93.1562 100.297 93.2031 99.6875 93.1094 99.2188C93.0156 98.6562 92.875 98.1875 92.6875 97.8125C92.5938 97.3438 92.5 96.9219 92.4062 96.5469C92.3125 96.0781 92.3594 95.5156 92.5469 94.8594C92.0781 94.8594 91.7031 94.5312 91.4219 93.875C91.1406 93.2188 90.8125 92.5625 90.4375 91.9062C90.7188 90.2188 91 88.625 91.2812 87.125C91.5625 85.625 91.8906 84.2188 92.2656 82.9062C92.7344 81.5938 93.1094 80.2812 93.3906 78.9688C93.6719 77.6562 93.5312 76.2969 92.9688 74.8906C93.3438 75.1719 93.625 75.125 93.8125 74.75C94 74.2812 94.1406 73.7188 94.2344 73.0625C94.3281 72.3125 94.375 71.6094 94.375 70.9531C94.375 70.2031 94.3281 69.5938 94.2344 69.125C95.1719 66.6875 95.9219 64.2031 96.4844 61.6719C97.1406 59.0469 97.7031 56.4688 98.1719 53.9375C98.7344 51.4062 99.2969 48.9219 99.8594 46.4844C100.422 44.0469 101.172 41.7969 102.109 39.7344C103.141 39.5469 104.266 39.6875 105.484 40.1562C106.797 40.5312 107.594 41.0469 107.875 41.7031C110.312 39.8281 112.469 37.5781 114.344 34.9531C116.219 32.2344 118.141 29.6094 120.109 27.0781C122.078 24.5469 124.234 22.2969 126.578 20.3281C129.016 18.3594 132.062 17.1875 135.719 16.8125C137.594 18.2188 139.656 19.6719 141.906 21.1719C144.25 22.5781 146.172 24.4531 147.672 26.7969C148.422 27.1719 149.031 27.5938 149.5 28.0625C150.062 28.4375 150.719 28.8594 151.469 29.3281V31.0156C152.594 32.0469 153.484 33.2656 154.141 34.6719C154.891 35.9844 155.547 37.4375 156.109 39.0312C156.672 40.5312 157.234 42.0781 157.797 43.6719C158.359 45.1719 159.016 46.625 159.766 48.0312C159.578 48.5 159.484 48.9219 159.484 49.2969C159.484 49.5781 159.531 49.9062 159.625 50.2812C159.812 50.6562 159.953 51.0312 160.047 51.4062C160.141 51.7812 160.141 52.2969 160.047 52.9531C159.766 57.0781 158.406 60.4062 155.969 62.9375C153.625 65.4688 150.766 67.5781 147.391 69.2656C144.016 70.8594 140.406 72.2188 136.562 73.3438C132.719 74.4688 129.25 75.6875 126.156 77C126.156 77.375 126.297 77.5625 126.578 77.5625C126.953 77.5625 127.094 77.7969 127 78.2656C129.25 79.6719 131.031 80.7969 132.344 81.6406C133.656 82.4844 134.875 83.1875 136 83.75C137.219 84.3125 138.484 84.8281 139.797 85.2969C141.203 85.6719 143.125 86.1406 145.562 86.7031C148 87.2656 149.875 87.7344 151.188 88.1094C152.594 88.3906 153.859 88.6719 154.984 88.9531C156.109 89.1406 157.234 89.3281 158.359 89.5156C159.578 89.6094 161.266 89.75 163.422 89.9375C164.266 90.7812 164.969 91.8125 165.531 93.0312C166.188 94.1562 166.609 95.3281 166.797 96.5469C166.984 97.6719 167.031 98.7969 166.938 99.9219C166.844 100.953 166.516 101.797 165.953 102.453C166.047 102.734 166.234 102.875 166.516 102.875C166.891 102.781 167.266 102.781 167.641 102.875C167.078 103.25 166.609 103.719 166.234 104.281C165.859 104.844 165.484 105.406 165.109 105.969C164.734 106.531 164.312 107 163.844 107.375C163.375 107.844 162.719 108.125 161.875 108.219C158.969 109.344 155.312 109.391 150.906 108.359C146.5 107.422 140.922 105.641 134.172 103.016C130.797 101.703 128.031 100.578 125.875 99.6406C123.812 98.6094 121.984 97.625 120.391 96.6875C118.891 95.6562 117.484 94.5781 116.172 93.4531C114.953 92.3281 113.453 90.9688 111.672 89.375ZM131.781 41.1406C130.75 42.6406 129.578 44 128.266 45.2188C127.047 46.4375 125.828 47.7031 124.609 49.0156C123.484 50.2344 122.453 51.6406 121.516 53.2344C120.578 54.7344 119.922 56.5156 119.547 58.5781C122.828 58.2031 126.25 57.3125 129.812 55.9062C133.375 54.4062 136.75 53 139.938 51.6875C139.562 48.7812 138.531 46.4375 136.844 44.6562C135.25 42.875 133.562 41.7031 131.781 41.1406ZM247.094 23.9844C247.281 26.0469 247.609 27.8281 248.078 29.3281C248.547 30.8281 249.062 32.2812 249.625 33.6875C250.094 35 250.516 36.3125 250.891 37.625C251.359 38.8438 251.688 40.3438 251.875 42.125C251.125 44.5625 250.562 46.8125 250.188 48.875C249.906 50.9375 249.578 53.0938 249.203 55.3438C247.703 58.625 246.25 61.5312 244.844 64.0625C243.438 66.5938 242.312 68.7969 241.469 70.6719C241 71.1406 240.578 71.7031 240.203 72.3594C239.922 72.9219 239.594 73.5312 239.219 74.1875C239.031 74.4688 238.797 74.8906 238.516 75.4531C238.234 76.0156 238 76.3906 237.812 76.5781L235 75.5938L234.438 79.1094L232.469 79.6719L231.062 81.3594C229.281 84.4531 227.406 87.0781 225.438 89.2344C223.469 91.2969 221.219 93.1719 218.688 94.8594C216.25 96.4531 213.438 97.9531 210.25 99.3594C207.156 100.766 203.641 102.312 199.703 104C198.109 103.812 196.703 103.719 195.484 103.719C194.359 103.625 193.281 103.531 192.25 103.438C190.469 103.438 188.266 103.297 185.641 103.016C185.359 102.266 184.938 101.75 184.375 101.469C183.812 101.188 183.297 101.047 182.828 101.047C181.234 100.297 180.016 99.2188 179.172 97.8125C178.422 96.3125 177.672 94.7188 176.922 93.0312C176.453 92 175.984 91.0625 175.516 90.2188C175.047 89.2812 174.531 88.3438 173.969 87.4062L176.359 86.7031L173.266 83.3281C173.078 83.0469 172.844 82.8125 172.562 82.625C172.281 82.3438 172.047 82.0625 171.859 81.7812L171.719 79.5312C171.438 73.0625 171.297 67.1562 171.297 61.8125C171.391 56.375 172.141 51.5469 173.547 47.3281V45.7812C173.828 43.7188 174.109 42.0312 174.391 40.7188C174.672 39.3125 174.906 38 175.094 36.7812C175.375 34.7188 175.797 32.7969 176.359 31.0156C177.672 30.7344 178.656 30.2188 179.312 29.4688C179.969 28.625 180.531 27.875 181 27.2188C182.312 27.125 183.203 27.3125 183.672 27.7812C184.141 28.25 184.609 29 185.078 30.0312C185.547 30.875 186.109 31.8125 186.766 32.8438C187.516 33.875 188.594 34.6719 190 35.2344C190.188 35.9844 190.422 36.7812 190.703 37.625C191.078 38.375 191.453 39.2188 191.828 40.1562C192.578 41.75 193.234 43.4375 193.797 45.2188C194.453 46.9062 194.828 48.5469 194.922 50.1406C193.984 51.9219 193.234 53.9844 192.672 56.3281C192.203 58.6719 191.875 61.0625 191.688 63.5C191.594 65.8438 191.641 68.1406 191.828 70.3906C192.109 72.5469 192.531 74.375 193.094 75.875L193.938 77.7031L196.328 77.4219C199.141 76.6719 201.672 75.875 203.922 75.0312C206.266 74.0938 208.422 73.0156 210.391 71.7969C212.359 70.5781 214.234 69.1719 216.016 67.5781C217.797 65.8906 219.672 63.9688 221.641 61.8125C223.609 59.6562 225.297 57.2188 226.703 54.5C228.203 51.6875 229.422 48.7812 230.359 45.7812C231.391 42.7812 232.141 39.8281 232.609 36.9219C233.172 33.9219 233.547 31.1094 233.734 28.4844C235.328 27.9219 236.125 26.7969 236.125 25.1094L235.844 23.5625C235.469 23 235.469 22.3438 235.844 21.5938C236.406 19.8125 237.719 18.4531 239.781 17.5156C241.281 18.4531 242.594 19.4844 243.719 20.6094C244.938 21.7344 246.062 22.8594 247.094 23.9844ZM250.609 40.7188C251.266 38.75 252.297 37.0625 253.703 35.6562C255.203 34.25 256.797 33.0781 258.484 32.1406C260.266 31.1094 262.094 30.2656 263.969 29.6094C265.844 28.9531 267.625 28.3906 269.312 27.9219C273.062 26.3281 277.047 24.8281 281.266 23.4219C285.578 21.9219 289.938 20.6094 294.344 19.4844C298.844 18.3594 303.438 17.6562 308.125 17.375C312.812 17 317.734 17.5625 322.891 19.0625C323.172 20 323.594 20.8906 324.156 21.7344C324.719 22.5781 325.281 23.4219 325.844 24.2656C326.5 25.1094 327.062 25.9531 327.531 26.7969C328 27.5469 328.281 28.3438 328.375 29.1875C329.312 30.0312 330.062 30.9688 330.625 32C331.188 32.9375 331.281 34.2031 330.906 35.7969C329.969 36.5469 329.031 37.25 328.094 37.9062C327.25 38.4688 326.312 38.9844 325.281 39.4531C321.812 38.6094 318.297 38.3281 314.734 38.6094C311.172 38.8906 307.984 39.125 305.172 39.3125C304.328 38.4688 303.297 38.0469 302.078 38.0469C300.953 38.0469 299.734 38.2344 298.422 38.6094C297.203 38.9844 295.938 39.3594 294.625 39.7344C293.406 40.1094 292.234 40.2031 291.109 40.0156C290.172 40.7656 289 41.2812 287.594 41.5625C286.281 41.75 284.828 41.9375 283.234 42.125C283.141 42.5938 283.234 42.9219 283.516 43.1094C283.797 43.2031 283.844 43.4844 283.656 43.9531C284.219 44.6094 284.922 45.0781 285.766 45.3594C286.703 45.6406 287.641 45.9219 288.578 46.2031C289.609 46.4844 290.5 46.8594 291.25 47.3281C292 47.7031 292.516 48.3594 292.797 49.2969C294.203 49.2969 295.422 49.625 296.453 50.2812C297.484 50.9375 298.328 51.7344 298.984 52.6719C299.641 53.6094 300.109 54.6406 300.391 55.7656C300.766 56.7969 300.953 57.7344 300.953 58.5781C301.234 59.3281 301.562 59.6562 301.938 59.5625C302.312 59.4688 302.734 59.6562 303.203 60.125C303.484 61.3438 304.188 62.6094 305.312 63.9219C306.438 65.1406 307.328 66.5 307.984 68C308.172 70.3438 308.312 72.4531 308.406 74.3281C308.5 76.1094 308.172 77.9375 307.422 79.8125C306.016 83.2812 304.047 86.375 301.516 89.0938C299.078 91.8125 296.266 94.25 293.078 96.4062C289.984 98.4688 286.656 100.25 283.094 101.75C279.531 103.25 276.062 104.516 272.688 105.547C272.312 105.453 271.938 105.453 271.562 105.547C271.188 105.641 271.094 105.406 271.281 104.844C270.531 105.5 269.688 105.922 268.75 106.109C267.906 106.297 266.969 106.344 265.938 106.25C264.906 106.25 263.828 106.203 262.703 106.109C261.672 106.016 260.688 106.062 259.75 106.25C259.094 105.594 258.484 104.938 257.922 104.281C257.453 103.719 257.078 102.969 256.797 102.031C256.328 102.031 256.094 101.797 256.094 101.328C256.188 100.859 256.047 100.625 255.672 100.625C256.234 99.6875 256.469 99.1719 256.375 99.0781C256.375 98.8906 256.234 98.75 255.953 98.6562C255.766 98.5625 255.578 98.4688 255.391 98.375C255.203 98.1875 255.156 97.9531 255.25 97.6719C255.625 96.9219 255.766 96.0781 255.672 95.1406C255.578 94.1094 255.484 93.0781 255.391 92.0469C255.297 91.0156 255.344 90.0312 255.531 89.0938C255.812 88.1562 256.516 87.4062 257.641 86.8438C260.828 87.2188 263.828 87.125 266.641 86.5625C269.547 85.9062 272.266 85.0156 274.797 83.8906C277.328 82.7656 279.719 81.5469 281.969 80.2344C284.312 78.9219 286.609 77.75 288.859 76.7188C289.141 75.875 289.516 75.1719 289.984 74.6094C290.547 74.0469 291.109 73.5312 291.672 73.0625C292.234 72.5938 292.75 72.0781 293.219 71.5156C293.688 70.9531 294.016 70.25 294.203 69.4062C294.297 68.75 294.109 68.375 293.641 68.2812C293.266 68.0938 293.078 67.7188 293.078 67.1562L291.531 66.7344C289.75 65.7031 287.734 64.8594 285.484 64.2031C283.234 63.4531 281.312 62.6562 279.719 61.8125C278.688 62.375 277.703 62.5156 276.766 62.2344C275.922 61.9531 274.797 61.6719 273.391 61.3906C270.203 61.2031 267.109 60.875 264.109 60.4062C261.203 59.9375 258.391 59.0938 255.672 57.875C255.484 57.4062 255.25 56.9844 254.969 56.6094C254.688 56.2344 254.172 56.1406 253.422 56.3281C252.859 55.5781 252.297 54.875 251.734 54.2188C251.172 53.4688 250.656 52.6719 250.188 51.8281C250.375 50.7031 250.516 49.7656 250.609 49.0156C250.703 48.1719 250.422 47.375 249.766 46.625C250.141 45.4062 250.422 44.4219 250.609 43.6719C250.797 42.9219 250.797 41.9375 250.609 40.7188ZM387.156 90.3594C387.344 92.7969 387.062 94.8125 386.312 96.4062C385.562 98 384.531 99.3594 383.219 100.484C381.906 101.609 380.406 102.5 378.719 103.156C377.031 103.812 375.391 104.422 373.797 104.984C373.047 104.516 372.297 104.047 371.547 103.578C370.891 103.016 370.094 102.594 369.156 102.312C367.938 100.062 366.766 98.0938 365.641 96.4062C364.516 94.625 364 92.6094 364.094 90.3594C364.094 90.2656 364.141 89.75 364.234 88.8125C364.422 87.875 364.609 86.8438 364.797 85.7188C365.078 84.5938 365.266 83.5625 365.359 82.625C365.547 81.5938 365.641 81.0312 365.641 80.9375C363.484 81.125 361.234 81.5938 358.891 82.3438C356.547 83.0938 354.25 83.9844 352 85.0156C349.844 86.0469 347.781 87.0781 345.812 88.1094C343.938 89.1406 342.391 90.0312 341.172 90.7812C341.172 91.0625 340.984 91.7656 340.609 92.8906C340.234 93.9219 339.766 95.0469 339.203 96.2656C338.641 97.3906 338.031 98.4219 337.375 99.3594C336.719 100.297 336.062 100.766 335.406 100.766C335.5 101.047 335.641 101.328 335.828 101.609C336.016 101.891 336.016 102.266 335.828 102.734C334.516 103.109 333.344 103.578 332.312 104.141C331.281 104.797 330.203 105.312 329.078 105.688C327.953 106.156 326.734 106.391 325.422 106.391C324.109 106.391 322.562 105.922 320.781 104.984C320.781 104.422 320.547 103.953 320.078 103.578C319.609 103.109 319.094 102.734 318.531 102.453C318.062 102.078 317.641 101.797 317.266 101.609C316.891 101.328 316.703 101.094 316.703 100.906C316.234 101 316.047 100.672 316.141 99.9219C316.234 99.1719 316.609 98.9844 317.266 99.3594C316.234 98.0469 315.578 96.9219 315.297 95.9844C315.109 94.9531 314.594 93.6875 313.75 92.1875C313.938 92 314.125 91.6719 314.312 91.2031C314.406 90.7344 314.5 90.3125 314.594 89.9375C314.688 89.5625 314.828 89.2812 315.016 89.0938C315.203 88.9062 315.438 88.9531 315.719 89.2344C315.531 88.3906 315.531 87.6875 315.719 87.125C315.906 86.5625 316.094 86.0469 316.281 85.5781C316.469 85.1094 316.609 84.6406 316.703 84.1719C316.797 83.7031 316.656 83.1875 316.281 82.625C317.781 80.5625 318.766 78.3594 319.234 76.0156C319.703 73.5781 319.984 71.375 320.078 69.4062C320.734 68.75 321.297 67.8125 321.766 66.5938C322.328 65.375 322.75 64.1562 323.031 62.9375C323.312 61.625 323.406 60.4062 323.312 59.2812C323.312 58.0625 323.172 57.0781 322.891 56.3281C322.984 55.8594 323.5 55.7188 324.438 55.9062C325 52.8125 325.375 49.3438 325.562 45.5C325.844 41.5625 326.266 37.8594 326.828 34.3906C327.391 30.8281 328.328 27.7344 329.641 25.1094C330.953 22.3906 333.062 20.6094 335.969 19.7656C336.531 21.7344 337.234 23.4688 338.078 24.9688C339.016 26.4688 340 27.9219 341.031 29.3281C342.156 30.6406 343.234 32 344.266 33.4062C345.391 34.8125 346.422 36.4062 347.359 38.1875C347.266 39.9688 347.078 42.0312 346.797 44.375C346.516 46.7188 346.141 49.1094 345.672 51.5469C345.297 53.9844 344.875 56.3281 344.406 58.5781C344.031 60.8281 343.656 62.75 343.281 64.3438C343.375 64.8125 343.609 65.0938 343.984 65.1875C344.453 65.2812 344.547 65.7031 344.266 66.4531C346.516 65.8906 348.859 65.375 351.297 64.9062C353.734 64.4375 356.172 63.9219 358.609 63.3594C361.047 62.7969 363.391 62.1875 365.641 61.5312C367.984 60.7812 370.141 59.8906 372.109 58.8594C372.578 55.2031 373.188 51.5469 373.938 47.8906C374.688 44.2344 374.781 40.4844 374.219 36.6406C374.688 36.2656 375.062 35.7969 375.344 35.2344C375.625 34.6719 376.094 34.2969 376.75 34.1094C376.281 32.3281 376.094 30.4531 376.188 28.4844C376.281 26.5156 376.609 24.6406 377.172 22.8594C377.828 21.0781 378.719 19.5781 379.844 18.3594C381.062 17.0469 382.516 16.2031 384.203 15.8281C385.234 17.3281 386.125 18.9688 386.875 20.75C387.625 22.4375 388.375 24.1719 389.125 25.9531C389.969 27.6406 390.812 29.2812 391.656 30.875C392.594 32.375 393.766 33.6875 395.172 34.8125C395.453 37.5312 395.641 40.3438 395.734 43.25C395.922 46.1562 396.062 49.1094 396.156 52.1094C395.406 55.6719 394.562 59.1406 393.625 62.5156C392.781 65.7969 392.172 69.3125 391.797 73.0625C391.141 73.8125 390.625 74.6562 390.25 75.5938C389.875 76.5312 389.5 77.5156 389.125 78.5469C388.75 79.4844 388.328 80.4219 387.859 81.3594C387.391 82.2031 386.828 82.9531 386.172 83.6094C386.547 84.7344 386.594 85.8125 386.312 86.8438C386.125 87.7812 386.406 88.9531 387.156 90.3594ZM428.781 94.1562C429.25 96.9688 429.062 99.1719 428.219 100.766C427.469 102.359 426.344 103.531 424.844 104.281C423.438 105.125 421.797 105.594 419.922 105.688C418.047 105.781 416.266 105.688 414.578 105.406C413.641 104.094 412.797 102.453 412.047 100.484C411.297 98.5156 410.594 96.5 409.938 94.4375C409.281 92.2812 408.672 90.1719 408.109 88.1094C407.641 86.0469 407.219 84.2188 406.844 82.625C407.312 81.5 407.594 80.2344 407.688 78.8281C407.875 77.3281 407.969 75.8281 407.969 74.3281C408.062 72.8281 408.109 71.3281 408.109 69.8281C408.203 68.2344 408.344 66.7344 408.531 65.3281C409.188 61.3906 410.125 57.6406 411.344 54.0781C412.656 50.5156 413.688 46.8125 414.438 42.9688C414.625 42.125 414.531 41.3281 414.156 40.5781C413.875 39.8281 413.828 39.125 414.016 38.4688C414.109 38.0938 414.391 37.8594 414.859 37.7656C415.328 37.5781 415.609 37.25 415.703 36.7812C415.984 35.75 416.031 34.9062 415.844 34.25C415.75 33.5938 415.938 32.7969 416.406 31.8594C416.875 31.1094 417.438 30.0312 418.094 28.625C418.844 27.125 419.125 25.5781 418.938 23.9844C419.781 23.4219 420.578 22.7656 421.328 22.0156C422.078 21.2656 422.828 20.6094 423.578 20.0469C424.422 19.3906 425.312 18.8281 426.25 18.3594C427.281 17.8906 428.5 17.6562 429.906 17.6562C430.656 18.5938 431.125 19.625 431.312 20.75C431.594 21.875 431.828 23 432.016 24.125C432.297 25.25 432.672 26.3281 433.141 27.3594C433.609 28.2969 434.406 29.0469 435.531 29.6094C435.531 30.3594 435.531 31.2969 435.531 32.4219C435.531 33.5469 435.578 34.6719 435.672 35.7969C435.766 36.8281 435.953 37.8125 436.234 38.75C436.609 39.5938 437.172 40.1562 437.922 40.4375C436.234 44.9375 434.641 49.3906 433.141 53.7969C431.734 58.2031 430.562 62.6562 429.625 67.1562C428.688 71.5625 428.078 76.0156 427.797 80.5156C427.609 85.0156 427.938 89.5625 428.781 94.1562ZM473.922 78.4062C473.078 78.5938 472.469 79.1094 472.094 79.9531C471.719 80.7031 471.344 81.5 470.969 82.3438C470.688 83.1875 470.359 83.9844 469.984 84.7344C469.703 85.3906 469.234 85.7188 468.578 85.7188C468.484 86.4688 468.203 87.125 467.734 87.6875C467.359 88.25 466.984 88.8594 466.609 89.5156C466.234 90.0781 465.953 90.7344 465.766 91.4844C465.578 92.1406 465.672 92.9375 466.047 93.875C465.297 94.4375 464.828 95.2344 464.641 96.2656C464.453 97.2969 464.219 98.2812 463.938 99.2188C463.75 100.156 463.375 100.953 462.812 101.609C462.25 102.266 461.219 102.547 459.719 102.453C459.438 102.828 459.391 103.062 459.578 103.156C459.766 103.25 459.906 103.578 460 104.141C458.969 103.953 458.172 104 457.609 104.281C457.141 104.656 456.531 104.891 455.781 104.984C454 104.422 452.5 103.438 451.281 102.031C450.156 100.625 449.125 99.0781 448.188 97.3906C447.344 95.6094 446.547 93.8281 445.797 92.0469C445.141 90.2656 444.484 88.7188 443.828 87.4062C444.109 86.375 444.156 85.3906 443.969 84.4531C443.781 83.4219 443.453 82.5781 442.984 81.9219C447.578 72.1719 452.594 61.7656 458.031 50.7031C463.469 39.6406 468.625 28.7188 473.5 17.9375C475.656 18.7812 477.766 19.7656 479.828 20.8906C481.984 21.9219 483.906 23.1406 485.594 24.5469C487.375 25.9531 488.875 27.5938 490.094 29.4688C491.312 31.25 492.109 33.2656 492.484 35.5156C492.297 36.0781 492.062 36.3125 491.781 36.2188C491.594 36.0312 491.406 36.0781 491.219 36.3594C491.594 36.8281 491.781 37.1562 491.781 37.3438C491.875 37.5312 491.875 37.7188 491.781 37.9062C491.781 38.0938 491.781 38.375 491.781 38.75C491.781 39.0312 491.922 39.4531 492.203 40.0156C491.828 39.9219 491.547 39.9688 491.359 40.1562C491.266 40.3438 490.984 40.3438 490.516 40.1562C490.891 41.1875 490.984 42.0312 490.797 42.6875C490.703 43.3438 490.516 43.9531 490.234 44.5156C489.953 44.9844 489.719 45.5469 489.531 46.2031C489.344 46.7656 489.391 47.5156 489.672 48.4531C489.391 48.4531 489.156 48.5469 488.969 48.7344C488.875 48.8281 488.781 48.9688 488.688 49.1562C488.594 49.25 488.453 49.3906 488.266 49.5781C488.172 49.6719 487.984 49.6719 487.703 49.5781C487.984 51.6406 488.078 53.7031 487.984 55.7656C487.891 57.8281 487.797 59.9375 487.703 62.0938C487.703 64.1562 487.75 66.3594 487.844 68.7031C487.938 70.9531 488.266 73.2969 488.828 75.7344C492.203 73.7656 494.875 71.2344 496.844 68.1406C498.906 65.0469 500.547 61.5781 501.766 57.7344C503.078 53.8906 504.062 49.7656 504.719 45.3594C505.375 40.9531 506.078 36.4531 506.828 31.8594C507.672 31.0156 508.328 29.9844 508.797 28.7656C509.266 27.5469 509.688 26.2812 510.062 24.9688C510.438 23.5625 510.812 22.2031 511.188 20.8906C511.562 19.4844 512.031 18.2188 512.594 17.0938C514 17.2812 515.172 17.75 516.109 18.5C517.141 19.1562 518.078 19.9062 518.922 20.75C519.766 21.5 520.656 22.25 521.594 23C522.531 23.6562 523.703 24.0781 525.109 24.2656C526.234 25.8594 527.266 27.4062 528.203 28.9062C529.141 30.4062 529.75 32 530.031 33.6875C529.562 34.4375 529.188 35.2812 528.906 36.2188C528.719 37.1562 528.484 38.0938 528.203 39.0312C527.922 39.9688 527.547 40.8594 527.078 41.7031C526.609 42.4531 525.953 43.1094 525.109 43.6719C524.828 46.1094 524.453 48.3594 523.984 50.4219C523.609 52.3906 523.188 54.3594 522.719 56.3281C522.344 58.2969 522.016 60.3594 521.734 62.5156C521.453 64.5781 521.359 66.875 521.453 69.4062C520.703 71.5625 519.906 73.8594 519.062 76.2969C518.219 78.7344 517.562 80.9375 517.094 82.9062C515.594 84.125 514.422 85.5781 513.578 87.2656C512.734 88.9531 511.844 90.6406 510.906 92.3281C510.531 92.7031 510.297 92.7969 510.203 92.6094C510.109 92.4219 509.781 92.2812 509.219 92.1875C509.312 92.5625 509.312 92.8438 509.219 93.0312C509.125 93.2188 508.984 93.4062 508.797 93.5938C508.703 93.6875 508.609 93.875 508.516 94.1562C508.516 94.4375 508.609 94.8125 508.797 95.2812C507.484 95.8438 506.312 96.6406 505.281 97.6719C504.25 98.7031 503.125 99.6406 501.906 100.484C500.781 101.328 499.375 101.891 497.688 102.172C496.094 102.453 493.984 102.125 491.359 101.188C487.516 98.375 484.094 95.1406 481.094 91.4844C478.188 87.8281 475.797 83.4688 473.922 78.4062ZM626.078 78.6875C623.828 82.7188 620.875 85.8594 617.219 88.1094C613.562 90.2656 609.531 92.0938 605.125 93.5938C600.719 95 596.078 96.2656 591.203 97.3906C586.422 98.5156 581.781 99.9688 577.281 101.75C575.969 101.75 574.797 101.797 573.766 101.891C572.828 101.984 571.891 102.125 570.953 102.312C570.109 102.406 569.266 102.547 568.422 102.734C567.578 102.828 566.641 102.922 565.609 103.016C565.234 102.922 565 103.016 564.906 103.297C564.812 103.484 564.672 103.672 564.484 103.859C562.891 104.141 561.438 104.281 560.125 104.281C558.906 104.281 557.875 104.281 557.031 104.281C555.906 104.281 554.734 104.422 553.516 104.703C552.391 105.078 551.359 105.219 550.422 105.125C543.391 104.75 537.859 102.266 533.828 97.6719C529.891 92.9844 527.688 86.5156 527.219 78.2656C527.312 77.7969 527.219 77.5156 526.938 77.4219C526.75 77.3281 526.562 77.1875 526.375 77C526.375 76.0625 526.469 75.2656 526.656 74.6094C526.938 73.9531 526.984 73.1094 526.797 72.0781C529.234 66.9219 532 62.1406 535.094 57.7344C538.188 53.2344 541.891 49.2969 546.203 45.9219C546.859 45.3594 547.422 44.7969 547.891 44.2344C548.359 43.6719 548.781 43.1094 549.156 42.5469C549.625 41.9844 550.141 41.5156 550.703 41.1406C551.266 40.6719 551.969 40.3438 552.812 40.1562C554.781 37.9062 557.125 35.8438 559.844 33.9688C562.562 32.0938 565.422 30.3125 568.422 28.625C571.422 26.8438 574.375 25.1094 577.281 23.4219C580.281 21.6406 583 19.6719 585.438 17.5156C586.469 17.9844 587.219 18.125 587.688 17.9375C588.156 17.75 588.672 17.75 589.234 17.9375C589.891 19.3438 590.781 20.3281 591.906 20.8906C593.125 21.4531 594.297 22.0625 595.422 22.7188C596.641 23.2812 597.766 23.9844 598.797 24.8281C599.828 25.6719 600.625 26.7969 601.188 28.2031C600.625 28.2031 600.344 28.4375 600.344 28.9062C600.438 29.2812 600.578 29.7031 600.766 30.1719C600.953 30.5469 601 30.9688 600.906 31.4375C600.906 31.8125 600.578 32 599.922 32C600.016 32.4688 600.297 32.75 600.766 32.8438C601.328 32.8438 601.609 33.0781 601.609 33.5469C601.609 34.0156 601.469 34.3906 601.188 34.6719C601 34.9531 601 35.4219 601.188 36.0781C599.312 37.2969 597.203 38.4688 594.859 39.5938C592.609 40.7188 590.219 41.9375 587.688 43.25C585.25 44.4688 582.672 45.8281 579.953 47.3281C577.328 48.7344 574.75 50.375 572.219 52.25C569.688 54.125 567.109 56.2344 564.484 58.5781C561.859 60.8281 559.328 63.2188 556.891 65.75C554.453 68.2812 552.156 70.9062 550 73.625C547.844 76.25 546.016 78.875 544.516 81.5C544.703 81.9688 544.891 82.3438 545.078 82.625C545.359 82.8125 545.594 83.1406 545.781 83.6094C548.781 83.7969 551.547 83.7969 554.078 83.6094C556.703 83.3281 559.328 83.4688 561.953 84.0312C562.234 83.8438 562.422 83.5625 562.516 83.1875C562.609 82.8125 562.844 82.5312 563.219 82.3438C568.562 81.7812 573.531 80.9375 578.125 79.8125C582.719 78.5938 587.406 77.3281 592.188 76.0156C591.438 75.7344 590.734 75.5 590.078 75.3125C589.516 75.0312 588.953 74.7969 588.391 74.6094C587.922 74.1406 587.922 73.7656 588.391 73.4844C588.953 73.1094 589.422 72.7344 589.797 72.3594C588.484 71.6094 587.406 70.6719 586.562 69.5469C585.812 68.4219 585.344 66.9219 585.156 65.0469C585.719 64.5781 586 64.0156 586 63.3594C586 62.7031 585.719 62.1875 585.156 61.8125C584.781 61.7188 584.547 61.7188 584.453 61.8125C584.359 61.9062 584.266 62.0469 584.172 62.2344C584.172 62.4219 584.125 62.6094 584.031 62.7969C583.938 62.8906 583.703 62.8438 583.328 62.6562C583.422 61.8125 583.609 61.1094 583.891 60.5469C584.266 59.9844 584.547 59.3281 584.734 58.5781L594.438 52.1094C595.469 52.8594 596.734 53.7031 598.234 54.6406C599.734 55.4844 601.281 56.375 602.875 57.3125C604.562 58.1562 606.25 59.0469 607.938 59.9844C609.719 60.8281 611.359 61.6719 612.859 62.5156C614.172 63.0781 615.344 63.8281 616.375 64.7656C617.406 65.7031 618.391 66.6875 619.328 67.7188C620.266 68.6562 621.203 69.5938 622.141 70.5312C623.172 71.4688 624.344 72.2656 625.656 72.9219C625.469 74.1406 625.516 75.125 625.797 75.875C626.078 76.625 626.172 77.5625 626.078 78.6875ZM686.688 91.7656C683.969 89.7031 681.719 87.125 679.938 84.0312C678.25 80.9375 676.891 77.6562 675.859 74.1875C674.922 70.7188 674.266 67.1562 673.891 63.5C673.609 59.75 673.516 56.1875 673.609 52.8125C674.453 50.2812 675.484 47.9844 676.703 45.9219C677.922 43.7656 679.281 41.75 680.781 39.875C682.281 37.9062 683.828 36.0781 685.422 34.3906C687.109 32.6094 688.75 30.8281 690.344 29.0469C690.906 29.0469 691.422 29.1875 691.891 29.4688C692.266 28.4375 692.828 27.5469 693.578 26.7969C694.328 26.0469 695.125 25.3906 695.969 24.8281C696.812 24.1719 697.656 23.5625 698.5 23C699.344 22.3438 700.047 21.5938 700.609 20.75C702.953 20.1875 705.016 19.3906 706.797 18.3594C708.672 17.3281 710.453 16.2031 712.141 14.9844C713.828 13.7656 715.562 12.6406 717.344 11.6094C719.125 10.5781 721.188 9.78125 723.531 9.21875C724.375 8.28125 725.406 7.48438 726.625 6.82812C727.938 6.17188 729.203 5.5625 730.422 5C731.734 4.4375 732.953 3.82812 734.078 3.17188C735.297 2.51563 736.281 1.625 737.031 0.5C737.594 1.25 738.391 1.53125 739.422 1.34375C740.453 1.0625 741.391 0.78125 742.234 0.5C742.797 0.40625 743.266 0.5 743.641 0.78125C744.016 1.0625 744.344 1.39063 744.625 1.76562C745 2.04688 745.281 2.23438 745.469 2.32812C745.75 2.42187 746.031 2.14062 746.312 1.48438C747.062 1.57812 747.25 1.90625 746.875 2.46875C746.594 3.03125 746.406 3.40625 746.312 3.59375C747.25 3.40625 748 3.59375 748.562 4.15625C749.219 4.625 750.203 4.95312 751.516 5.14062C751.984 5.60938 752.125 5.98438 751.938 6.26562C751.75 6.54688 751.609 7.01562 751.516 7.67188C754.891 8.70312 757.047 10.3438 757.984 12.5938C758.922 14.75 759.016 17.0469 758.266 19.4844C757.516 21.8281 756.109 24.0312 754.047 26.0938C752.078 28.0625 749.875 29.375 747.438 30.0312C744.531 30.7812 741.812 31.5312 739.281 32.2812C736.844 33.0312 734.453 33.875 732.109 34.8125C729.859 35.75 727.703 36.875 725.641 38.1875C723.672 39.4062 721.938 40.8594 720.438 42.5469C717.812 43.2969 715.422 44.3281 713.266 45.6406C711.203 46.9531 709.234 48.4062 707.359 50C705.578 51.5938 703.844 53.2812 702.156 55.0625C700.469 56.75 698.781 58.4375 697.094 60.125C697.094 61.7188 696.812 62.9375 696.25 63.7812C695.688 64.625 695.078 65.4688 694.422 66.3125C694.609 68.0938 694.984 69.6406 695.547 70.9531C696.203 72.1719 696.859 73.4375 697.516 74.75C705.016 77 712.938 78.4062 721.281 78.9688C729.719 79.4375 738.062 79.7188 746.312 79.8125C747.156 80.9375 748.094 82.0156 749.125 83.0469C750.25 83.9844 751.234 84.9688 752.078 86C753.016 87.0312 753.719 88.25 754.188 89.6562C754.75 90.9688 754.891 92.5625 754.609 94.4375C753.016 96.0312 751.281 97.5781 749.406 99.0781C747.531 100.484 745.656 101.891 743.781 103.297C742.938 103.391 741.906 103.391 740.688 103.297C739.562 103.203 738.344 103.156 737.031 103.156C735.812 103.156 734.547 103.25 733.234 103.438C732.016 103.531 730.844 103.812 729.719 104.281C723.812 104.094 717.766 103.391 711.578 102.172C705.391 100.859 699.672 99.3125 694.422 97.5312C693.391 96.3125 692.312 95.1875 691.188 94.1562C690.062 93.0312 688.562 92.2344 686.688 91.7656ZM843.625 61.8125C843.531 62.9375 843.625 64.0156 843.906 65.0469C844.188 66.0781 844.516 67.1094 844.891 68.1406C845.359 69.0781 845.781 70.0625 846.156 71.0938C846.531 72.125 846.812 73.1562 847 74.1875C847.188 75.5 847.188 76.9531 847 78.5469C846.812 80.0469 846.484 81.5469 846.016 83.0469C845.547 84.4531 844.938 85.7656 844.188 86.9844C843.438 88.1094 842.547 88.9531 841.516 89.5156C840.203 91.2031 838.609 92.5156 836.734 93.4531C834.859 94.3906 833.125 95.5156 831.531 96.8281C830.5 97.4844 829.328 97.9531 828.016 98.2344C826.797 98.5156 825.531 98.7969 824.219 99.0781C823.188 99.6406 821.969 100.25 820.562 100.906C819.156 101.469 817.703 102.031 816.203 102.594C814.703 103.062 813.203 103.438 811.703 103.719C810.203 103.906 808.891 103.953 807.766 103.859C804.953 104.891 802.188 105.547 799.469 105.828C796.844 106.203 793.75 106.016 790.188 105.266C786.812 105.734 783.672 105.594 780.766 104.844C777.953 104.094 775.422 102.922 773.172 101.328C771.016 99.6406 769.094 97.6719 767.406 95.4219C765.812 93.0781 764.5 90.6406 763.469 88.1094C762.719 82.7656 762.906 77.9375 764.031 73.625C765.156 69.2188 766.75 65.1875 768.812 61.5312C770.969 57.7812 773.406 54.3594 776.125 51.2656C778.844 48.0781 781.469 44.9844 784 41.9844C784.562 42.1719 784.984 42.1719 785.266 41.9844C785.641 41.7031 785.969 41.375 786.25 41C786.531 40.5312 786.812 40.1094 787.094 39.7344C787.469 39.3594 787.891 39.125 788.359 39.0312C789.016 37.625 789.953 36.5938 791.172 35.9375C792.484 35.1875 793.516 34.1562 794.266 32.8438C795.109 32.6562 795.812 32.375 796.375 32C796.938 31.625 797.453 31.2031 797.922 30.7344C798.484 30.2656 799.047 29.8438 799.609 29.4688C800.172 29 800.828 28.6719 801.578 28.4844V26.9375C803.266 26.1875 804.484 25.3438 805.234 24.4062C806.078 23.375 807.062 22.1562 808.188 20.75C809.031 20.6562 809.688 20.6094 810.156 20.6094C810.719 20.6094 811.516 20.5156 812.547 20.3281C813.297 19.0156 813.953 18.0312 814.516 17.375C815.172 16.7188 816.109 16.0156 817.328 15.2656C818.453 15.8281 819.672 16.2031 820.984 16.3906C822.391 16.5781 823.609 17.1875 824.641 18.2188C824.734 19.1562 825.016 19.9062 825.484 20.4688C825.953 20.9375 826.469 21.4062 827.031 21.875C827.594 22.25 828.109 22.6719 828.578 23.1406C829.141 23.6094 829.516 24.2656 829.703 25.1094C830.078 25.2031 830.312 25.1562 830.406 24.9688C830.594 24.7812 830.875 24.7344 831.25 24.8281C831.531 26.1406 831.859 27.0312 832.234 27.5C832.609 27.875 832.984 28.6719 833.359 29.8906C832.891 30.8281 832.516 31.8125 832.234 32.8438C832.047 33.7812 831.484 34.4844 830.547 34.9531C830.453 35.6094 830.641 35.9844 831.109 36.0781C831.578 36.0781 831.859 36.3125 831.953 36.7812C832.047 37.625 831.906 38.2344 831.531 38.6094C833.781 42.2656 835.797 46.1562 837.578 50.2812C839.359 54.3125 841.375 58.1562 843.625 61.8125ZM826.047 75.1719C826.422 74.1406 826.891 73.2969 827.453 72.6406C828.109 71.9844 828.484 71 828.578 69.6875C828.109 68.9375 827.828 68.375 827.734 68C827.641 67.5312 827.594 66.8281 827.594 65.8906C825.531 62.9844 823.75 59.8906 822.25 56.6094C820.75 53.2344 819.062 50.0938 817.188 47.1875C817 47.5625 816.672 47.9375 816.203 48.3125C815.734 48.6875 815.219 48.5938 814.656 48.0312C814.469 48.7812 814.141 49.3438 813.672 49.7188C813.203 50 812.688 50.1406 812.125 50.1406C811.562 50.0469 810.953 49.9062 810.297 49.7188C809.734 49.4375 809.219 49.1094 808.75 48.7344C806.031 50.8906 803.312 53 800.594 55.0625C797.875 57.125 795.438 59.5156 793.281 62.2344C792.906 62.4219 792.672 62.5156 792.578 62.5156C792.484 62.4219 792.203 62.4688 791.734 62.6562C790.984 64.4375 790.047 66.0781 788.922 67.5781C787.891 68.9844 786.859 70.4375 785.828 71.9375C784.797 73.4375 783.906 75.0312 783.156 76.7188C782.406 78.4062 781.984 80.375 781.891 82.625C783.484 83.9375 785.359 84.7344 787.516 85.0156C789.672 85.2969 791.875 85.3438 794.125 85.1562C796.469 84.9688 798.719 84.6875 800.875 84.3125C803.125 83.8438 805.188 83.6094 807.062 83.6094C811 82.6719 814.375 81.4531 817.188 79.9531C820 78.3594 822.953 76.7656 826.047 75.1719ZM921.531 66.0312C921.438 66.5 921.344 66.9219 921.25 67.2969C921.156 67.5781 921.062 67.8594 920.969 68.1406C920.875 68.4219 920.828 68.7969 920.828 69.2656C920.828 69.6406 920.828 70.1562 920.828 70.8125C918.016 75.7812 914.453 79.9531 910.141 83.3281C905.922 86.7031 901.234 89.7031 896.078 92.3281C891.016 94.8594 885.719 97.2031 880.188 99.3594C874.656 101.422 869.266 103.672 864.016 106.109C861.766 105.547 860.031 104.609 858.812 103.297C857.688 101.984 856.797 100.484 856.141 98.7969C855.578 97.0156 855.156 95.0938 854.875 93.0312C854.688 90.875 854.5 88.6719 854.312 86.4219C854.594 85.3906 854.969 84.5469 855.438 83.8906C856 83.1406 856.281 82.1094 856.281 80.7969C857.031 78.3594 857.781 75.9688 858.531 73.625C859.281 71.2812 859.75 68.8906 859.938 66.4531C860.219 65.7031 860.734 65.1875 861.484 64.9062C861.953 60.4062 861.953 55.8594 861.484 51.2656C861.109 46.5781 860.359 42.2188 859.234 38.1875C859.328 37.25 859.422 36.5938 859.516 36.2188C859.703 35.75 859.703 35.4219 859.516 35.2344C859.422 34.4844 859.656 34.1094 860.219 34.1094C860.875 34.1094 861.531 34.1094 862.188 34.1094C862.188 32.7031 861.906 31.2969 861.344 29.8906C860.875 28.4844 860.406 26.8906 859.938 25.1094C860.594 23.7031 861.016 22.3438 861.203 21.0312C861.391 19.625 861.812 18.4062 862.469 17.375C867.531 18.9688 872.359 20.8906 876.953 23.1406C881.641 25.3906 886.234 27.0312 890.734 28.0625C894.109 30.5 897.578 32.9375 901.141 35.375C904.703 37.7188 907.938 40.3438 910.844 43.25C913.75 46.0625 916.188 49.2969 918.156 52.9531C920.125 56.6094 921.25 60.9688 921.531 66.0312ZM888.203 73.7656C890.172 73.0156 892.094 72.2188 893.969 71.375C895.938 70.5312 897.719 69.5938 899.312 68.5625C901 67.4375 902.5 66.1719 903.812 64.7656C905.125 63.3594 906.203 61.6719 907.047 59.7031C906.484 58.5781 905.734 57.5938 904.797 56.75C903.859 55.8125 902.922 54.9688 901.984 54.2188C901.047 53.375 900.109 52.5312 899.172 51.6875C898.328 50.8438 897.625 49.8125 897.062 48.5938C895.844 48.4062 894.766 48.0781 893.828 47.6094C892.891 47.0469 891.953 46.5312 891.016 46.0625C890.172 45.5 889.234 44.9844 888.203 44.5156C887.266 44.0469 886.141 43.7656 884.828 43.6719C882.766 42.6406 880.891 41.8906 879.203 41.4219C877.609 40.9531 876.391 40.3438 875.547 39.5938C874.891 39.5938 874.375 39.7344 874 40.0156C874.938 43.5781 875.641 46.9531 876.109 50.1406C876.578 53.2344 876.812 56.375 876.812 59.5625C876.906 62.6562 876.766 65.8438 876.391 69.125C876.016 72.4062 875.5 75.9688 874.844 79.8125C875.781 79.7188 876.625 79.5312 877.375 79.25C878.219 78.875 879.016 78.5 879.766 78.125C880.609 77.75 881.453 77.4219 882.297 77.1406C883.234 76.7656 884.312 76.5312 885.531 76.4375C885.812 75.875 886.188 75.4062 886.656 75.0312C887.219 74.6562 887.734 74.2344 888.203 73.7656ZM1000.84 24.8281C1000.94 25.4844 1000.94 26 1000.84 26.375C1000.84 26.6562 1000.8 26.9375 1000.7 27.2188C1000.7 27.5 1000.7 27.8281 1000.7 28.2031C1000.7 28.4844 1000.8 28.9531 1000.98 29.6094C999.016 32.7969 996.719 35 994.094 36.2188C991.562 37.3438 988.797 38.1875 985.797 38.75C982.797 39.2188 979.703 39.7344 976.516 40.2969C973.422 40.8594 970.328 42.0781 967.234 43.9531C966.016 43.4844 964.891 43.4844 963.859 43.9531C962.922 44.4219 961.516 44.5625 959.641 44.375C959.078 44.9375 958.375 45.3594 957.531 45.6406C956.688 45.8281 955.844 46.0625 955 46.3438C955.375 47.1875 955.516 48.0781 955.422 49.0156C955.422 49.8594 955.562 50.5625 955.844 51.125C959.125 51.4062 962.734 51.3594 966.672 50.9844C970.703 50.6094 974.641 50.375 978.484 50.2812C978.578 50.75 978.531 51.0781 978.344 51.2656C978.156 51.3594 978.109 51.5938 978.203 51.9688C978.859 52.4375 979.516 53.0469 980.172 53.7969C980.828 54.4531 981.484 55.1094 982.141 55.7656C982.797 56.4219 983.453 56.9844 984.109 57.4531C984.859 57.8281 985.703 57.9688 986.641 57.875C987.016 58.625 987.25 59.4688 987.344 60.4062C987.531 61.25 987.438 62.1406 987.062 63.0781C985.562 64.1094 984.062 65.1875 982.562 66.3125C981.062 67.3438 979.469 68.2812 977.781 69.125C976.188 69.9688 974.453 70.6719 972.578 71.2344C970.797 71.7031 968.781 71.8906 966.531 71.7969C966.062 71.7969 965.688 71.7969 965.406 71.7969C965.219 71.7969 964.938 71.6562 964.562 71.375C963.812 71.8438 962.734 71.9844 961.328 71.7969C960.016 71.6094 958.984 71.75 958.234 72.2188C957.203 71.75 955.938 71.5625 954.438 71.6562C953.031 71.6562 951.766 71.4688 950.641 71.0938C949.141 73.0625 947.781 75.1719 946.562 77.4219C945.344 79.6719 944.266 82.0625 943.328 84.5938C946.516 85.0625 949.141 85.25 951.203 85.1562C953.359 85.0625 955.375 84.9219 957.25 84.7344C959.125 84.4531 961.047 84.2188 963.016 84.0312C964.984 83.75 967.469 83.6562 970.469 83.75C972.344 82.7188 974.547 82.0625 977.078 81.7812C979.703 81.4062 982.094 80.8438 984.25 80.0938C985 80.375 985.656 80.8906 986.219 81.6406C986.781 82.2969 987.297 82.9531 987.766 83.6094C988.328 84.1719 988.891 84.6875 989.453 85.1562C990.016 85.625 990.719 85.8125 991.562 85.7188C991.938 86.0938 992.172 86.5625 992.266 87.125C992.453 87.5938 992.594 88.0625 992.688 88.5312C992.781 89 992.922 89.4219 993.109 89.7969C993.391 90.0781 993.812 90.1719 994.375 90.0781C992.969 93.1719 991.328 95.5625 989.453 97.25C987.672 98.8438 985.609 100.062 983.266 100.906C980.922 101.75 978.297 102.406 975.391 102.875C972.578 103.344 969.438 103.906 965.969 104.562C965.125 104.75 964.422 104.703 963.859 104.422C963.297 104.234 962.641 104.141 961.891 104.141C959.734 104.609 957.156 105.031 954.156 105.406C951.156 105.781 948.109 105.922 945.016 105.828C941.922 105.734 938.969 105.312 936.156 104.562C933.344 103.906 931.047 102.688 929.266 100.906C928.516 100.25 928 99.5 927.719 98.6562C927.531 97.7188 926.922 97.0156 925.891 96.5469C925.797 95.3281 925.609 93.9688 925.328 92.4688C925.047 90.9688 924.766 89.4219 924.484 87.8281C924.203 86.1406 923.969 84.5 923.781 82.9062C923.688 81.3125 923.781 79.8594 924.062 78.5469C924.344 77.1406 924.906 75.875 925.75 74.75C926.688 73.625 927.016 72.4062 926.734 71.0938C927.203 71 927.484 70.7656 927.578 70.3906C927.672 69.9219 928.047 69.7344 928.703 69.8281C929.266 68.1406 929.875 66.5469 930.531 65.0469C931.188 63.5469 931.844 62.0938 932.5 60.6875C933.25 59.2812 933.953 57.875 934.609 56.4688C935.359 54.9688 936.062 53.3281 936.719 51.5469C935.406 50.3281 934.422 49.0156 933.766 47.6094C933.203 46.1094 932.781 44.6562 932.5 43.25C932.219 41.75 931.984 40.25 931.797 38.75C931.609 37.1562 931.281 35.5625 930.812 33.9688C931.75 32.5625 932.875 31.4375 934.188 30.5938C935.594 29.6562 937.094 28.9062 938.688 28.3438C940.281 27.7812 942.016 27.3125 943.891 26.9375C945.766 26.5625 947.734 26.1406 949.797 25.6719C953.547 24.4531 956.875 23.5156 959.781 22.8594C962.781 22.2031 965.688 21.6875 968.5 21.3125C971.406 20.8438 974.406 20.4219 977.5 20.0469C980.594 19.6719 984.109 19.1094 988.047 18.3594C988.891 19.2031 989.688 19.625 990.438 19.625C990.812 18.7812 991.234 18.5469 991.703 18.9219C992.266 19.2031 992.5 18.9219 992.406 18.0781C993.344 19.6719 994.516 21.0312 995.922 22.1562C997.422 23.1875 999.062 24.0781 1000.84 24.8281Z" fill="black"/>
</svg>
